<svg xmlns="http://www.w3.org/2000/svg" viewBox="0 0 217.62 167.4"><defs><style>.cls-1{fill:#444242;}</style></defs><g id="Layer_2" data-name="Layer 2"><g id="Capa_1" data-name="Capa 1"><path class="cls-1" d="M200,26.68H164.73L143.6,5.34s-.11-.11-.16-.11l-.1-.1h0A17.12,17.12,0,0,0,131.15,0H87.2A17.31,17.31,0,0,0,74.34,5.7v0L53.67,26.68H17.58A17.38,17.38,0,0,0,0,44.05V149.77A17.6,17.6,0,0,0,17.58,167.4H200a17.63,17.63,0,0,0,17.58-17.63V44.05A17.41,17.41,0,0,0,200,26.68ZM108.81,141a48.44,48.44,0,1,1,48.34-48.44A48.48,48.48,0,0,1,108.81,141Zm87.94-86.31a7.38,7.38,0,1,1,7.32-7.38A7.36,7.36,0,0,1,196.75,54.67Z"/><path class="cls-1" d="M108.81,55.92a36.62,36.62,0,1,0,36.51,36.62A36.54,36.54,0,0,0,108.81,55.92Z"/></g></g></svg>