<svg xmlns="http://www.w3.org/2000/svg" viewBox="0 0 178.67 164.46"><defs><style>.cls-1{fill:#444242;}</style></defs><g id="Layer_2" data-name="Layer 2"><g id="Capa_1" data-name="Capa 1"><path class="cls-1" d="M166.17,52.79c-2.68-4.47-8-5.36-12.51-2.68s-5.36,8-2.68,12.51c6.25,8.93,8.93,19.65,8.93,30.37a53.76,53.76,0,0,1-53.6,53.6H70.58a53.6,53.6,0,1,1,0-107.2h26.8V51.9q0,5.35,5.36,8c.89.89,2.68.89,3.57.89A12.61,12.61,0,0,0,111.67,59l26.8-21.44a7.34,7.34,0,0,0,4.47-7.14,8.12,8.12,0,0,0-3.57-7.15L112.56,1.87a9.58,9.58,0,0,0-9.82-.9,9.39,9.39,0,0,0-4.47,8V21.52H71.47a71.47,71.47,0,0,0,0,142.94H107.2a71.33,71.33,0,0,0,59-111.67Z"/></g></g></svg>