<svg xmlns="http://www.w3.org/2000/svg" viewBox="0 0 208.82 156.64"><defs><style>.cls-1{fill:#444242;}</style></defs><g id="Layer_2" data-name="Layer 2"><g id="Capa_1" data-name="Capa 1"><path class="cls-1" d="M6.17,130.27A6.23,6.23,0,0,1,0,123.86V32.78a6.23,6.23,0,0,1,6.18-6.41,6.65,6.65,0,0,1,3.32.92L88.39,72.83a6.23,6.23,0,0,1,0,11L9.5,129.35a6.62,6.62,0,0,1-3.32.92Z"/><path class="cls-1" d="M202.65,130.27a6.23,6.23,0,0,0,6.17-6.41V32.78a6.23,6.23,0,0,0-6.17-6.41,6.69,6.69,0,0,0-3.33.92L120.44,72.83a6.23,6.23,0,0,0,0,11l78.88,45.54a6.69,6.69,0,0,0,3.33.92Z"/><path class="cls-1" d="M106.86,45.45c-2.58,0-4.67-2.91-4.67-6.49V6.49c0-3.58,2.09-6.49,4.67-6.49s4.68,2.91,4.68,6.49V39C111.54,42.54,109.44,45.45,106.86,45.45Z"/><path class="cls-1" d="M106.86,101.05c-2.58,0-4.67-2.91-4.67-6.5V62.09c0-3.59,2.09-6.49,4.67-6.49s4.68,2.9,4.68,6.49V94.55C111.54,98.14,109.44,101.05,106.86,101.05Z"/><path class="cls-1" d="M106.86,156.64c-2.58,0-4.67-2.91-4.67-6.49V117.68c0-3.58,2.09-6.49,4.67-6.49s4.68,2.91,4.68,6.49v32.47C111.54,153.73,109.44,156.64,106.86,156.64Z"/></g></g></svg>